<svg id="Capa_1" enable-background="new 0 0 511.953 511.953" height="512" viewBox="0 0 511.953 511.953" width="512" xmlns="http://www.w3.org/2000/svg"><g><g><g><g><g><path d="m246.632 327.706c-.352-.278-34.014-26.733-65.654-26.733-34.014 0-69.082 13.799-69.434 13.931-4.629 1.831-9.873 1.274-13.975-1.523-9.515-6.411-5.764-16.94-6.592-24.111 0-44.487 7.998-74.048 23.73-116.235 1.406-3.735 4.219-6.753 7.852-8.408 3.633-1.626 7.734-1.787 11.484-.396l121.934 45.718 121.934-45.718c3.721-1.406 7.852-1.26 11.484.396s6.445 4.673 7.852 8.408c15.732 42.188 23.73 71.748 23.73 116.235-.82 7.11 2.898 17.718-6.592 24.111-4.131 2.798-9.375 3.369-13.975 1.523-.352-.132-35.42-13.931-69.434-13.931-26.455 0-56.338 19.277-65.626 26.719-5.357 4.294-13.193 4.41-18.718.014z" fill="#47568c"/></g></g></g></g><path d="m265.352 327.691c9.288-7.441 39.171-26.719 65.626-26.719 34.014 0 69.082 13.799 69.434 13.931 4.6 1.846 9.844 1.274 13.975-1.523 9.515-6.411 5.764-16.94 6.592-24.111 0-44.487-7.998-74.048-23.73-116.235-1.406-3.735-4.219-6.753-7.852-8.408s-7.764-1.802-11.484-.396l-121.934 45.718v120.985c3.346.001 6.673-1.077 9.373-3.242z" fill="#29376d"/><g><path d="m465.978 390.973c-8.291 0-15-6.709-15-15v-228.604c0-8.291 6.709-15 15-15s15 6.709 15 15v228.604c0 8.291-6.709 15-15 15z" fill="#704c55"/></g><g id="Mortarboard_1_"><g><path d="m250.704 240.02-241-90c-12.923-4.846-12.955-23.238 0-28.096l241-90c3.398-1.26 7.148-1.26 10.547 0l241 90c12.893 4.835 12.997 23.28-.059 28.11-3.004 1.127-256.885 95.965-240.941 89.985-3.307 1.227-7.008 1.313-10.547.001z" fill="#61729b"/></g><path d="m465.978 360.973c-25.664 0-45 32.241-45 75v30c0 8.291 6.709 15 15 15h60c8.291 0 15-6.709 15-15v-30c0-42.759-19.336-75-45-75z" fill="#f9b"/></g><g><path d="m465.978 390.973c-8.291 0-15-6.709-15-15v-228.604c0-8.291 6.709-15 15-15s15 6.709 15 15v228.604c0 8.291-6.709 15-15 15z" fill="#fabe2c"/></g><path d="m465.978 360.973c-25.664 0-45 32.241-45 75v30c0 8.291 6.709 15 15 15h60c8.291 0 15-6.709 15-15v-30c0-42.759-19.336-75-45-75z" fill="#ffe666"/><path d="m261.251 240.02c-15.945 5.98 237.937-88.859 240.941-89.985 13.06-4.832 12.948-23.277.059-28.11l-241-90c-1.699-.63-3.486-.945-5.273-.945v209.976c1.81-.002 3.592-.313 5.273-.936z" fill="#47568c"/></g></svg>